<svg width="110" height="110" viewBox="0 0 110 110" fill="none" xmlns="http://www.w3.org/2000/svg">
<circle cx="55" cy="55" r="55" fill="#F2F9FF"/>
<path d="M59.683 55.4666C60.738 54.3337 61.3323 52.8479 61.3497 51.2999C61.3497 49.6291 60.6859 48.0266 59.5044 46.8451C58.323 45.6637 56.7205 44.9999 55.0497 44.9999C53.3788 44.9999 51.7764 45.6637 50.5949 46.8451C49.4134 48.0266 48.7497 49.6291 48.7497 51.2999C48.7671 52.8479 49.3614 54.3337 50.4163 55.4666C48.9474 56.198 47.6834 57.2831 46.7379 58.6243C45.7924 59.9655 45.1951 61.5206 44.9997 63.1499C44.9511 63.5919 45.08 64.0352 45.3582 64.3821C45.6364 64.7291 46.041 64.9513 46.483 64.9999C46.925 65.0485 47.3683 64.9196 47.7152 64.6414C48.0622 64.3632 48.2844 63.9586 48.333 63.5166C48.5319 61.9018 49.3144 60.4155 50.5332 59.3377C51.7519 58.2598 53.3227 57.6649 54.9497 57.6649C56.5766 57.6649 58.1475 58.2598 59.3662 59.3377C60.5849 60.4155 61.3675 61.9018 61.5663 63.5166C61.6127 63.9439 61.8224 64.3369 62.1516 64.6133C62.4808 64.8897 62.9041 65.0282 63.333 64.9999H63.5163C63.9532 64.9497 64.3526 64.7287 64.6273 64.3853C64.902 64.0419 65.0299 63.6039 64.983 63.1666C64.8021 61.5459 64.2236 59.995 63.299 58.6517C62.3744 57.3084 61.1323 56.2143 59.683 55.4666V55.4666ZM54.9997 54.2666C54.4129 54.2666 53.8393 54.0926 53.3515 53.7666C52.8636 53.4406 52.4834 52.9773 52.2588 52.4352C52.0343 51.8931 51.9755 51.2966 52.09 50.7212C52.2045 50.1457 52.487 49.6171 52.9019 49.2022C53.3168 48.7873 53.8454 48.5047 54.4209 48.3903C54.9964 48.2758 55.5929 48.3345 56.135 48.5591C56.6771 48.7836 57.1404 49.1639 57.4664 49.6517C57.7923 50.1396 57.9663 50.7132 57.9663 51.2999C57.9663 52.0867 57.6538 52.8413 57.0974 53.3977C56.5411 53.954 55.7865 54.2666 54.9997 54.2666V54.2666ZM66.6663 38.3333H43.333C42.0069 38.3333 40.7352 38.86 39.7975 39.7977C38.8598 40.7354 38.333 42.0072 38.333 43.3333V66.6666C38.333 67.9927 38.8598 69.2644 39.7975 70.2021C40.7352 71.1398 42.0069 71.6666 43.333 71.6666H66.6663C67.9924 71.6666 69.2642 71.1398 70.2019 70.2021C71.1396 69.2644 71.6663 67.9927 71.6663 66.6666V43.3333C71.6663 42.0072 71.1396 40.7354 70.2019 39.7977C69.2642 38.86 67.9924 38.3333 66.6663 38.3333ZM68.333 66.6666C68.333 67.1086 68.1574 67.5325 67.8449 67.8451C67.5323 68.1577 67.1084 68.3333 66.6663 68.3333H43.333C42.891 68.3333 42.4671 68.1577 42.1545 67.8451C41.8419 67.5325 41.6663 67.1086 41.6663 66.6666V43.3333C41.6663 42.8912 41.8419 42.4673 42.1545 42.1547C42.4671 41.8422 42.891 41.6666 43.333 41.6666H66.6663C67.1084 41.6666 67.5323 41.8422 67.8449 42.1547C68.1574 42.4673 68.333 42.8912 68.333 43.3333V66.6666Z" fill="#008CFF"/>
</svg>
