<svg width="110" height="110" viewBox="0 0 110 110" fill="none" xmlns="http://www.w3.org/2000/svg">
<circle cx="55" cy="55" r="55" fill="#F2F9FF"/>
<path d="M67.717 41.0834C67.5234 40.9268 67.2971 40.8156 67.0548 40.7579C66.8126 40.7002 66.5604 40.6975 66.317 40.7501C64.5361 41.1233 62.6976 41.1281 60.9147 40.7641C59.1319 40.4001 57.4424 39.675 55.9503 38.6334C55.6713 38.4399 55.3399 38.3362 55.0003 38.3362C54.6608 38.3362 54.3293 38.4399 54.0503 38.6334C52.5583 39.675 50.8688 40.4001 49.0859 40.7641C47.3031 41.1281 45.4646 41.1233 43.6837 40.7501C43.4402 40.6975 43.1881 40.7002 42.9458 40.7579C42.7036 40.8156 42.4773 40.9268 42.2837 41.0834C42.0903 41.2403 41.9345 41.4385 41.8278 41.6635C41.7211 41.8884 41.6662 42.1344 41.667 42.3834V54.8001C41.6655 57.1897 42.235 59.545 43.3279 61.67C44.4208 63.795 46.0056 65.6282 47.9503 67.0168L54.0337 71.3501C54.3159 71.5511 54.6538 71.6591 55.0003 71.6591C55.3468 71.6591 55.6847 71.5511 55.967 71.3501L62.0503 67.0168C63.995 65.6282 65.5798 63.795 66.6728 61.67C67.7657 59.545 68.3351 57.1897 68.3337 54.8001V42.3834C68.3345 42.1344 68.2796 41.8884 68.1728 41.6635C68.0661 41.4385 67.9104 41.2403 67.717 41.0834ZM65.0003 54.8001C65.0016 56.658 64.5591 58.4894 63.7098 60.1418C62.8604 61.7942 61.6286 63.2199 60.117 64.3001L55.0003 67.9501L49.8837 64.3001C48.3721 63.2199 47.1403 61.7942 46.2909 60.1418C45.4415 58.4894 44.9991 56.658 45.0003 54.8001V44.3001C48.4944 44.5992 51.9937 43.7885 55.0003 41.9834C58.0069 43.7885 61.5063 44.5992 65.0003 44.3001V54.8001ZM57.567 50.9834L53.0837 55.4834L51.6003 53.9834C51.2865 53.6696 50.8608 53.4933 50.417 53.4933C49.9732 53.4933 49.5475 53.6696 49.2337 53.9834C48.9198 54.2973 48.7435 54.7229 48.7435 55.1668C48.7435 55.6106 48.9198 56.0363 49.2337 56.3501L51.9003 59.0168C52.0553 59.173 52.2396 59.297 52.4427 59.3816C52.6458 59.4662 52.8636 59.5098 53.0837 59.5098C53.3037 59.5098 53.5215 59.4662 53.7246 59.3816C53.9277 59.297 54.1121 59.173 54.267 59.0168L60.0003 53.3334C60.3142 53.0196 60.4905 52.5939 60.4905 52.1501C60.4905 51.7063 60.3142 51.2806 60.0003 50.9668C59.6865 50.6529 59.2608 50.4766 58.817 50.4766C58.3732 50.4766 57.9475 50.6529 57.6337 50.9668L57.567 50.9834Z" fill="#008CFF"/>
</svg>
