<svg xmlns="http://www.w3.org/2000/svg" width="18" height="18" viewBox="0 0 18 18" fill="none"><path d="M2.124 9.11361L2.12669 9.12637C2.50897 10.9413 3.73214 12.4995 5.46323 13.2864L9 14.894V13H11C13.7614 13 16 10.7614 16 8V7C16 4.23858 13.7614 2 11 2H7C4.23858 2 2 4.23858 2 7V8C2 8.38037 2.04211 8.74852 2.12115 9.10089L2.124 9.11361ZM11 18L4.63562 15.1071C2.31787 14.0536 0.68127 11.9677 0.169628 9.53858C0.0585895 9.0435 0 8.52859 0 8V7C0 3.13401 3.13401 0 7 0H11C14.866 0 18 3.13401 18 7V8C18 11.866 14.866 15 11 15V18Z" fill="#F2AF46"></path></svg>