<svg width="32" height="32" viewBox="0 0 32 32" fill="none" xmlns="http://www.w3.org/2000/svg">
<path d="M15.2536 2.66675C11.8354 2.6765 8.55156 3.99863 6.08024 6.36008V4.00008C6.08024 3.64646 5.93977 3.30732 5.68972 3.05727C5.43967 2.80722 5.10053 2.66675 4.74691 2.66675C4.39329 2.66675 4.05415 2.80722 3.8041 3.05727C3.55405 3.30732 3.41357 3.64646 3.41357 4.00008V10.0001C3.41357 10.3537 3.55405 10.6928 3.8041 10.9429C4.05415 11.1929 4.39329 11.3334 4.74691 11.3334H10.7469C11.1005 11.3334 11.4397 11.1929 11.6897 10.9429C11.9398 10.6928 12.0802 10.3537 12.0802 10.0001C12.0802 9.64646 11.9398 9.30732 11.6897 9.05727C11.4397 8.80722 11.1005 8.66675 10.7469 8.66675H7.54691C8.76252 7.38276 10.2782 6.4211 11.9577 5.86827C13.6372 5.31543 15.4278 5.18878 17.1684 5.49968C18.909 5.81059 20.545 6.54932 21.9293 7.6494C23.3135 8.74949 24.4026 10.1764 25.0985 11.8019C25.7944 13.4273 26.0754 15.2002 25.9161 16.9612C25.7568 18.7221 25.1622 20.4159 24.1859 21.89C23.2096 23.3642 21.8821 24.5725 20.3229 25.4063C18.7637 26.2401 17.0217 26.6733 15.2536 26.6667C14.9 26.6667 14.5608 26.8072 14.3108 27.0573C14.0607 27.3073 13.9202 27.6465 13.9202 28.0001C13.9202 28.3537 14.0607 28.6928 14.3108 28.9429C14.5608 29.1929 14.9 29.3334 15.2536 29.3334C18.7898 29.3334 22.1812 27.9287 24.6817 25.4282C27.1821 22.9277 28.5869 19.5363 28.5869 16.0001C28.5869 12.4639 27.1821 9.07248 24.6817 6.57199C22.1812 4.07151 18.7898 2.66675 15.2536 2.66675ZM15.2536 10.6667C14.9 10.6667 14.5608 10.8072 14.3108 11.0573C14.0607 11.3073 13.9202 11.6465 13.9202 12.0001V16.0001C13.9202 16.3537 14.0607 16.6928 14.3108 16.9429C14.5608 17.1929 14.9 17.3334 15.2536 17.3334H17.9202C18.2739 17.3334 18.613 17.1929 18.863 16.9429C19.1131 16.6928 19.2536 16.3537 19.2536 16.0001C19.2536 15.6465 19.1131 15.3073 18.863 15.0573C18.613 14.8072 18.2739 14.6667 17.9202 14.6667H16.5869V12.0001C16.5869 11.6465 16.4464 11.3073 16.1964 11.0573C15.9463 10.8072 15.6072 10.6667 15.2536 10.6667Z" fill="#25C2F4"/>
</svg>
