<svg width="32" height="32" viewBox="0 0 32 32" fill="none" xmlns="http://www.w3.org/2000/svg">
<path d="M26.173 4.86675C26.0181 4.74145 25.8371 4.65245 25.6433 4.6063C25.4495 4.56016 25.2478 4.55803 25.053 4.60009C23.6283 4.89868 22.1575 4.90248 20.7312 4.61126C19.3049 4.32005 17.9533 3.73997 16.7597 2.90675C16.5365 2.75192 16.2713 2.66895 15.9997 2.66895C15.728 2.66895 15.4629 2.75192 15.2397 2.90675C14.046 3.73997 12.6944 4.32005 11.2682 4.61126C9.84189 4.90248 8.3711 4.89868 6.94635 4.60009C6.7516 4.55803 6.5499 4.56016 6.35608 4.6063C6.16226 4.65245 5.98125 4.74145 5.82635 4.86675C5.67165 4.99224 5.54704 5.1508 5.46167 5.33077C5.3763 5.51075 5.33234 5.70756 5.33302 5.90675V15.8401C5.33183 17.7517 5.78738 19.636 6.66173 21.336C7.53608 23.036 8.80392 24.5025 10.3597 25.6134L15.2263 29.0801C15.4522 29.2409 15.7225 29.3273 15.9997 29.3273C16.2769 29.3273 16.5472 29.2409 16.773 29.0801L21.6397 25.6134C23.1954 24.5025 24.4633 23.036 25.3376 21.336C26.212 19.636 26.6675 17.7517 26.6663 15.8401V5.90675C26.667 5.70756 26.6231 5.51075 26.5377 5.33077C26.4523 5.1508 26.3277 4.99224 26.173 4.86675ZM23.9997 15.8401C24.0007 17.3264 23.6467 18.7915 22.9672 20.1134C22.2877 21.4354 21.3023 22.5759 20.093 23.4401L15.9997 26.3601L11.9063 23.4401C10.6971 22.5759 9.71166 21.4354 9.03215 20.1134C8.35263 18.7915 7.99866 17.3264 7.99968 15.8401V7.44009C10.7949 7.67933 13.5944 7.03078 15.9997 5.58675C18.405 7.03078 21.2044 7.67933 23.9997 7.44009V15.8401Z" fill="#24C2F7"/>
</svg>
