<svg width="32" height="32" viewBox="0 0 32 32" fill="none" xmlns="http://www.w3.org/2000/svg">
<path d="M9.99986 8.0001C9.6043 8.0001 9.21762 8.1174 8.88872 8.33716C8.55982 8.55693 8.30348 8.86928 8.1521 9.23474C8.00072 9.60019 7.96112 10.0023 8.03829 10.3903C8.11546 10.7782 8.30594 11.1346 8.58565 11.4143C8.86535 11.694 9.22172 11.8845 9.60968 11.9617C9.99764 12.0388 10.3998 11.9992 10.7652 11.8479C11.1307 11.6965 11.443 11.4401 11.6628 11.1112C11.8826 10.7823 11.9999 10.3957 11.9999 10.0001C11.9999 9.46967 11.7891 8.96096 11.4141 8.58589C11.039 8.21082 10.5303 8.0001 9.99986 8.0001ZM28.1599 14.2801L16.9465 3.05344C16.8219 2.92986 16.6742 2.83209 16.5117 2.76574C16.3493 2.69939 16.1753 2.66576 15.9999 2.66677H3.99986C3.64624 2.66677 3.3071 2.80725 3.05705 3.05729C2.807 3.30734 2.66653 3.64648 2.66653 4.0001V16.0001C2.66551 16.1756 2.69915 16.3495 2.7655 16.512C2.83185 16.6744 2.92962 16.8222 3.05319 16.9468L14.2799 28.1601C15.0299 28.9092 16.0465 29.3299 17.1065 29.3299C18.1665 29.3299 19.1832 28.9092 19.9332 28.1601L28.1599 20.0001C28.9089 19.2501 29.3297 18.2334 29.3297 17.1734C29.3297 16.1134 28.9089 15.0968 28.1599 14.3468V14.2801ZM26.2799 18.0401L18.0399 26.2668C17.79 26.5151 17.4521 26.6545 17.0999 26.6545C16.7476 26.6545 16.4097 26.5151 16.1599 26.2668L5.33319 15.4534V5.33344H15.4532L26.2799 16.1601C26.4034 16.2847 26.5012 16.4324 26.5676 16.5949C26.6339 16.7573 26.6675 16.9313 26.6665 17.1068C26.6651 17.4566 26.5262 17.7918 26.2799 18.0401Z" fill="#25C2F4"/>
</svg>
